<?xml version="1.0" standalone="no"?>
<!DOCTYPE svg PUBLIC "-//W3C//DTD SVG 1.1//EN" "http://www.w3.org/Graphics/SVG/1.1/DTD/svg11.dtd" >
<svg xmlns="http://www.w3.org/2000/svg">
<metadata>
Created by FontForge 20120731 at Wed Nov  9 10:49:54 2016
 By admin
</metadata>
<defs>
<font id="iconfont" horiz-adv-x="1024" >
  <font-face 
    font-family="iconfont"
    font-weight="500"
    font-stretch="normal"
    units-per-em="1024"
    panose-1="2 0 6 3 0 0 0 0 0 0"
    ascent="896"
    descent="-128"
    x-height="792"
    bbox="-2 -214 1239 890"
    underline-thickness="0"
    underline-position="0"
    unicode-range="U+0078-E7C6"
  />
<missing-glyph 
 />
    <glyph glyph-name=".notdef" 
 />
    <glyph glyph-name=".notdef" 
 />
    <glyph glyph-name=".null" horiz-adv-x="0" 
 />
    <glyph glyph-name="nonmarkingreturn" horiz-adv-x="341" 
 />
    <glyph glyph-name="x" unicode="x" horiz-adv-x="1001" 
d="M281 543q-27 -1 -53 -1h-83q-18 0 -36.5 -6t-32.5 -18.5t-23 -32t-9 -45.5v-76h912v41q0 16 -0.5 30t-0.5 18q0 13 -5 29t-17 29.5t-31.5 22.5t-49.5 9h-133v-97h-438v97zM955 310v-52q0 -23 0.5 -52t0.5 -58t-10.5 -47.5t-26 -30t-33 -16t-31.5 -4.5q-14 -1 -29.5 -0.5
t-29.5 0.5h-32l-45 128h-439l-44 -128h-29h-34q-20 0 -45 1q-25 0 -41 9.5t-25.5 23t-13.5 29.5t-4 30v167h911zM163 247q-12 0 -21 -8.5t-9 -21.5t9 -21.5t21 -8.5q13 0 22 8.5t9 21.5t-9 21.5t-22 8.5zM316 123q-8 -26 -14 -48q-5 -19 -10.5 -37t-7.5 -25t-3 -15t1 -14.5
t9.5 -10.5t21.5 -4h37h67h81h80h64h36q23 0 34 12t2 38q-5 13 -9.5 30.5t-9.5 34.5q-5 19 -11 39h-368zM336 498v228q0 11 2.5 23t10 21.5t20.5 15.5t34 6h188q31 0 51.5 -14.5t20.5 -52.5v-227h-327z" />
    <glyph glyph-name="tuihuobaozhang" unicode="&#x3432;" 
d="M937 373q-2 2 -5 7t-13 16.5t-20 21t-24 16.5t-27 7q-21 0 -45 -17.5t-37 -35.5l-14 -18q-1 3 -4.5 8t-14 17.5t-21 22t-25 17t-28.5 6.5q-49 -1 -79 -64v-272q-4 -46 -12 -69q-9 -26 -32 -46q-22 -20 -46 -28q-19 -6 -51 -6q-29 0 -52.5 8.5t-39.5 25t-24.5 40
t-8.5 59.5v26h75q0 -65 9 -77q12 -18 41 -19q4 0 9 0.5t8.5 2t6.5 2.5t4.5 2l1.5 1q12 11 15 20l3 22q2 22 2 34v279q-2 2 -10.5 13t-14.5 17t-15.5 14.5t-20 12.5t-21.5 4q-25 -1 -50 -18.5t-38 -34.5l-13 -17q-6 7 -16.5 19t-35.5 31.5t-41.5 19.5t-39 -17.5t-37.5 -35.5
l-14 -17q-1 7 -0.5 20.5t6 52t16.5 74.5t37 81t62.5 79.5t97 61.5t136.5 35l53 74l52 -74q241 -15 322 -214q38 -95 33 -190z" />
    <glyph glyph-name="huancun" unicode="&#xe603;" 
d="M820 39zM927 85q0 -21 -7 -39t-19.5 -33t-29.5 -24.5t-36 -12.5v-2h-18h-1h-535q-2 0 -2 -0.5t-2 -0.5t-2.5 0.5t-2.5 0.5h-5v1q-35 2 -65 16t-52 37.5t-35 54.5t-13 65.5t13 65t34.5 53.5t51 38t63.5 17q6 54 29.5 100.5t61 81t86.5 54.5t104 20q59 0 111 -22.5t90 -61
t60.5 -90t22.5 -110.5q0 -26 -5 -51t-14 -49q1 0 3.5 0.5t3.5 0.5q23 0 43 -8.5t35 -23.5t23.5 -35t8.5 -43v0zM656 207q9 16 5 18.5t-20 2.5q-10 0 -28 0.5t-27 0.5q-13 0 -16.5 11t-3.5 30q0 26 -1 42v35q0 22 -3 31.5t-24 9.5q-14 0 -21.5 -0.5t-20.5 -0.5
q-23 0 -28 -12.5t-5 -24.5v-27v-20.5v-20.5v-24q0 -13 -3 -20t-16 -7q-5 -1 -13 -1q-10 -1 -18 -1q-9 -1 -17 -1h-13q-18 0 -21 -10.5t11 -27.5t30 -37t32 -41l30 -40q14 -19 26 -33q23 -25 43 0q13 15 29.5 37t33.5 46.5t33 47t26 37.5v0zM656 207z" />
    <glyph glyph-name="daishouhuo" unicode="&#xe600;" 
d="M635 631h-301v120h60q0 25 17.5 42.5t42.5 17.5h61q25 0 42.5 -17.5t17.5 -42.5h60v-120v0zM485 685q15 0 26.5 11t11.5 26q0 17 -11.5 27.5t-26.5 10.5q-16 0 -27 -10.5t-11 -27.5q0 -15 11 -26t27 -11v0zM727 210q43 0 81.5 -16.5t67.5 -45.5t46 -67.5t17 -82.5
t-17 -82.5t-46 -67.5t-67.5 -45.5t-81.5 -16.5q-44 0 -83 16.5t-67.5 45.5t-45.5 67.5t-17 82.5t17 82.5t45.5 67.5t67.5 45.5t83 16.5v0zM451 27q0 -6 -0.5 -13t-0.5 -15q0 -43 12.5 -82t36.5 -72h-282q-18 0 -40 10.5t-40.5 28t-31 39.5t-12.5 46v597q0 20 9.5 42t25 40
t35.5 30t43 12h68v-120h421v120h60q22 0 43.5 -9.5t39 -26t28.5 -39.5t11 -49v-341q-33 22 -72 34.5t-82 12.5h-7q18 7 29 22.5t11 34.5q0 25 -18 42.5t-43 17.5h-421q-25 0 -43 -17.5t-18 -42.5t18 -43t43 -18h404q-58 -9 -105.5 -40.5t-77.5 -79.5h-221q-25 0 -43 -17.5
t-18 -42.5t18 -43t43 -18h177v0zM451 27zM860 37q6 6 11 16t-3 17q-2 2 -9 10t-9 9q-10 7 -18.5 2t-17.5 -14q-22 -22 -44 -43l-41 -41q-7 -6 -15 -7.5t-13 4.5q-3 3 -9 10t-13 15t-13 14q-6 8 -9 11q-6 4 -13 5.5t-15 -4.5q-1 -1 -5 -4.5t-8 -8t-7.5 -8l-4.5 -4.5
q-15 -15 4 -35q6 -7 15.5 -17t20 -21.5t21 -22.5t18.5 -18q8 -8 21.5 -7.5t19.5 8.5q14 12 31.5 30t35.5 36q19 19 37 36l32 32v0z" />
    <glyph glyph-name="zhuanfa" unicode="&#xe604;" 
d="M928 492q21 -17 37 -34.5t16 -34.5q0 -19 -14.5 -31t-35.5 -27q-32 -24 -67.5 -50.5t-67.5 -50t-56.5 -41t-34.5 -23.5q-33 -20 -51 -14.5t-23 21.5v116h-4q-76 0 -133 -16.5t-100 -50t-75 -83t-58 -114.5q-3 2 -6 11q-2 8 -3.5 23t-1.5 42q0 84 25.5 157t73 127.5
t115 85.5t151.5 30q5 0 8.5 -0.5t8.5 -0.5l-1 105q2 28 23 40.5t53 -10.5q10 -8 36.5 -29t59.5 -47t67 -53.5t58 -47.5v0zM761 116q33 0 46.5 -18.5t13.5 -53.5v-131q0 -50 -29 -83t-77 -32l-599 4q-22 0 -43 9t-37.5 25.5t-27 39.5t-10.5 52v579q0 49 29.5 82t82.5 32
l203 -2q11 0 23 -2.5t21.5 -9.5t16 -18.5t6.5 -29.5q0 -17 -7 -28.5t-18.5 -19t-25 -11t-26.5 -3.5l-96 1q-39 0 -61 -24.5t-22 -60.5v-396q0 -21 7.5 -38t20 -28.5t28 -18t31.5 -6.5l408 -4q35 -1 55.5 23t20.5 61v43q0 31 18.5 49t47.5 18v0z" />
    <glyph glyph-name="gouwuche" unicode="&#xe601;" 
d="M339 35q19 0 36 -7t30 -19.5t20 -29.5t7 -36t-7 -36t-20 -29.5t-30 -20t-36 -7.5q-20 0 -36.5 7.5t-29.5 20t-20 29.5t-7 36t7 36t20 29.5t29.5 19.5t36.5 7zM755 33q19 0 36.5 -7t30 -19.5t20 -29.5t7.5 -36t-7.5 -36t-20 -29.5t-30 -20t-36.5 -7.5t-36 7.5t-29.5 20
t-20 29.5t-7.5 36t7.5 36t20 29.5t29.5 19.5t36 7zM923 601q28 0 43.5 -7.5t22 -18.5t6 -23.5t-3.5 -21.5t-12.5 -37t-21.5 -61.5t-23.5 -66.5t-17.5 -52q-13 -40 -33 -55.5t-49 -15.5h-525l15 -90h504q48 0 48 -41q0 -20 -9.5 -34.5t-37.5 -14.5h-524q-20 0 -33.5 9
t-22.5 23.5t-14.5 31.5t-8.5 32q-1 6 -5.5 29t-11 57.5t-14.5 77t-16 85.5q-19 101 -43 225h-75q-15 0 -25 7.5t-16.5 18t-9 22.5t-2.5 22q0 20 13.5 33t36.5 13h101q20 0 32 -6t19 -15t10 -19t5 -17q2 -8 4 -22.5t4 -29.5q3 -18 6 -38h684v0z" />
    <glyph glyph-name="daifahuo" unicode="&#xe602;" 
d="M428 664q7 -26 7 -53q0 -42 -16 -79t-43.5 -64.5t-64 -43t-77.5 -15.5q-43 0 -79.5 15.5t-64 43t-43.5 64.5t-16 79q0 4 1 9q-14 -17 -22 -37q-9 -22 -9 -45v-502q0 -18 10.5 -27.5t27.5 -9.5h22q0 62 31.5 92t89.5 30q62 0 91 -32.5t29 -89.5h263q15 0 26.5 10.5
t11.5 26.5l-2 628h-173zM181 60q-26 0 -43.5 -18.5t-17.5 -44.5q0 -25 17.5 -43.5t43.5 -18.5t44 18.5t18 43.5q0 26 -18 44.5t-44 18.5zM844 59q-26 0 -43.5 -18.5t-17.5 -43.5q0 -26 17.5 -44.5t43.5 -18.5t44 18.5t18 44.5q0 25 -18 43.5t-44 18.5zM1016.5 226.5
q-7.5 54.5 -25.5 111.5t-55 107q-20 28 -50 48t-63.5 33t-68.5 18t-67 2q-10 -1 -17.5 -15t-7.5 -24v-464v-1q0 -17 12.5 -29.5t30.5 -12.5h17q0 24 9 45.5t25 38t37.5 26t46.5 9.5t47.5 -6.5t39.5 -21t27 -37.5t10 -56h40q5 0 8.5 5.5t6 14t3.5 16.5t1 14q0 30 0.5 77
t-7 101.5zM941 238.5q-9 -0.5 -20 -0.5h-178q-6 0 -13 6.5t-7 11.5v1q-1 48 -1 86v88q0 10 8.5 19.5t21.5 9.5q1 0 14.5 0.5t33 -1.5t42 -10.5t41.5 -26.5q30 -31 42.5 -75t23.5 -91q0 -2 0.5 -3t0.5 -3q0 -11 -9 -11.5zM377.5 675q-12.5 29 -34 50.5t-50.5 34t-61 12.5
q-33 0 -61.5 -12.5t-50 -34t-34.5 -50.5t-13 -61q0 -33 13 -62t34.5 -50.5t50 -33.5t61.5 -12q32 0 61 12t50.5 33.5t34 50.5t12.5 62q0 32 -12.5 61zM328.5 580.5q-8.5 -8.5 -19.5 -8.5h-87q-12 0 -20 8.5t-8 20.5v115q0 12 8 20.5t20 8.5t20.5 -8.5t8.5 -20.5v-86h58
q11 0 19.5 -8.5t8.5 -20.5t-8.5 -20.5z" />
    <glyph glyph-name="shoucang" unicode="&#xe607;" 
d="M896 294q66 69 66 166.5t-66 166.5q-68 71 -164 69q-37 -1 -91.5 -29.5t-90.5 -57.5l-37 -28q-6 4 -15.5 12t-38.5 28t-55.5 35t-59 27.5t-56.5 12.5q-93 0 -159 -69t-66 -166.5t66 -166.5l383 -399z" />
    <glyph glyph-name="fanhui" unicode="&#xe606;" 
d="M629 652l-298 -308v0l-43 -44l43 -44v0l298 -308l43 44l-299 308l299 308z" />
    <glyph glyph-name="fenxiang" unicode="&#xe627;" 
d="M793.5 710q-52.5 0 -90.5 -37.5t-38 -90.5q0 -10 3 -23l-394 -170q-38 39 -92 39q-53 0 -90.5 -37.5t-37.5 -90.5t37.5 -90.5t90.5 -37.5q32 0 63 17l289 -181q-8 -22 -8 -42q0 -53 37.5 -90.5t90.5 -37.5t90.5 37.5t37.5 90.5t-37.5 90.5t-90.5 37.5q-48 0 -84 -33
l-278 174q18 31 18 65q0 15 -5 33l390 168q39 -47 99 -47q52 0 90 37.5t38 90.5t-38 90.5t-90.5 37.5zM118 300q0 26 19 45t45 19t45 -19t19 -45t-19 -45t-45 -19t-45 19t-19 45zM654.5 30q26.5 0 45 -19t18.5 -45.5t-18.5 -45t-45 -18.5t-45.5 18.5t-19 45t19 45.5t45.5 19
zM793.5 518q-26.5 0 -45.5 18.5t-19 45t19 45.5t45.5 19t45 -19t18.5 -45.5t-18.5 -45t-45 -18.5z" />
    <glyph glyph-name="gengduo" unicode="&#xe623;" horiz-adv-x="1028" 
d="M307 288q0 14 9.5 24t23.5 10t23.5 -10t9.5 -24q0 -15 -9.5 -24t-23.5 -9q-16 0 -24.5 9.5t-8.5 23.5zM482 288q0 14 9.5 24t23.5 10t23.5 -10t9.5 -24q0 -15 -9.5 -24t-23.5 -9q-15 0 -24 9.5t-9 23.5zM657 288q0 14 9.5 24t23.5 10t23.5 -10t9.5 -24q0 -15 -9.5 -24
t-23.5 -9q-15 0 -24 9.5t-9 23.5zM514 -166q-95 0 -181 37t-148.5 99.5t-99.5 148.5t-37 181t37 181t99.5 148.5t148.5 99.5t181 37t181 -37t148.5 -99.5t99.5 -148.5t37 -181t-37 -181t-99.5 -148.5t-148.5 -99.5t-181 -37zM514 720q-114 0 -210.5 -56.5t-153 -153
t-56.5 -210.5t56.5 -210.5t153 -153t210.5 -56.5t210.5 56.5t153 153t56.5 210.5t-56.5 210.5t-153 153t-210.5 56.5z" />
    <glyph glyph-name="shoucang1" unicode="&#xe7c6;" 
d="M944 420l-287 42q-1 0 -1 1l-128 259q0 1 -1 0l-128 -259q0 -1 -1 -1l-287 -42q-1 0 0 0l207 -202q1 -1 1 -2l-49 -285v-1h1l256 135h1q0 31 14 52t33 21h66v67q0 19 22.5 33t53.5 14q25 0 45 -9l182 177q1 0 0 0zM831 100h-76v76q0 16 -11 27t-27 11t-27 -11t-11 -27
v-76h-76q-15 0 -26.5 -11t-11.5 -26.5t11.5 -27t26.5 -11.5h76v-75q0 -16 11 -27t27 -11t27 11t11 27v75h76q16 0 27 11.5t11 27t-11 26.5t-27 11z" />
    <glyph glyph-name="xiugaishuxing" unicode="&#xe62d;" 
d="M792 452l-388 -388l-194 194l388 387zM366 25l-233 -39l39 233zM792 452l-388 -388l-194 194l388 387zM831 490l68 68l-194 194l-68 -68zM831 490l68 68l-194 194l-68 -68zM897 -147h-771q-17 0 -29 11.5t-12 28.5t12 28.5t29 11.5h771q17 0 28.5 -11.5t11.5 -28.5
t-11.5 -28.5t-28.5 -11.5z" />
    <glyph glyph-name="icon" unicode="&#xe60b;" 
d="M513 -102l-22 22q-26 26 -113 90q-143 106 -204 171q-110 117 -110 231q0 131 72 213q33 37 76 57q43 19 91 19q72 0 135 -44q42 -31 74 -80q31 47 73 77q63 44 137 44q98 0 166 -74q71 -80 71 -210q0 -115 -108 -232q-61 -65 -203 -171q-88 -65 -114 -91zM303 640
q-72 0 -121 -56q-56 -64 -56 -172q0 -90 93 -189q56 -61 195 -164q71 -52 98 -76q27 24 99 77q138 103 195 163q92 100 92 191q0 107 -56 169q-49 54 -120 54q-54 0 -101 -33q-52 -37 -81 -105l-28 -66l-28 66q-30 71 -82 108q-46 33 -99 33z" />
    <glyph glyph-name="shangchuan" unicode="&#xe643;" 
d="M470 -4v148h-94l145 176l144 -175l-95 -1v-148h223q5 0 14.5 1t34 9t45.5 22t42 45t30 73q-1 28 -1 38.5t-2 23t-2.5 13.5t-6 14.5t-8.5 21.5q-18 25 -25 33.5t-26.5 22.5t-49.5 28q24 108 -46 193q-38 46 -96 62t-103 7q-45 -8 -88 -37.5t-69 -88.5q-24 25 -54 38.5
t-79 12.5q-30 -1 -67.5 -26t-53.5 -73q-16 -39 -3 -91q-39 -12 -75 -50q-21 -23 -34.5 -66t-2.5 -87q28 -116 150 -139h91h109h53z" />
    <glyph glyph-name="weibo" unicode="&#xe64f;" 
d="M726 301q-15 3 -19.5 9t-1.5 11l3 5q1 2 3.5 6.5t6 16t4 23t-4 26t-16.5 26.5q-14 14 -37 18.5t-46 1t-44 -9.5t-34 -11l-13 -6q-10 -3 -17 -4t-10.5 0.5t-5.5 3t-1.5 7t1 9.5t2.5 13t3 14q0 15 -2.5 28t-11 27.5t-23 22.5t-41 7.5t-62.5 -13.5q-35 -12 -72 -36t-65 -50
t-50.5 -51t-34 -40t-11.5 -16q-34 -44 -49.5 -88.5t-16.5 -66.5t1 -22q5 -49 29 -88t57.5 -63.5t79 -41.5t87 -24.5t88.5 -11.5q76 -6 157.5 12t152 62.5t99.5 105.5q17 37 17.5 68.5t-11 51.5t-29.5 35.5t-33.5 22.5t-28.5 10zM412 -19q-110 -5 -188 43.5t-78 121.5
q0 74 77.5 126.5t188.5 58.5q113 5 190 -37.5t77 -115.5q0 -74 -78.5 -133t-188.5 -64v0zM383 266q-108 -13 -128 -108q-5 -27 -3 -48v-5t2 -12t6 -17t12 -17t20 -16q67 -32 126 -19t95 59q13 18 18 43t-2 51.5t-23 48t-48.5 33.5t-74.5 7zM345.5 71q-20.5 -2 -35 8.5
t-14.5 27.5q0 18 13.5 33t33.5 17q23 2 38 -9.5t15 -28.5q0 -18 -15 -32t-35.5 -16zM433 145.5q-7 -5.5 -14.5 -4.5t-11.5 7t-2 14.5t8 13.5q9 6 16.5 5t11 -7.5t1.5 -14.5t-9 -13.5zM798 361q9 0 16 5.5t8 14.5v3q4 33 -1.5 58t-17 39t-26 23.5t-30 12t-28.5 3.5t-22 -1
l-8 -1q-10 0 -17 -7t-7 -17t7 -17t17 -7q80 17 87 -52q1 -17 -2 -33q0 -10 7 -17t17 -7zM781 645q-52 12 -122 -2l-1.5 -0.5l-1.5 -0.5l-1 -1q-11 -3 -18.5 -12.5t-7.5 -21.5q0 -15 10.5 -25t25.5 -10q19 2 32 7q5 1 17.5 2t33.5 -4t42.5 -13t44 -27t37.5 -44
q27 -61 11 -118q-7 -17 -7 -34q0 -14 10 -22.5t25 -8.5t23 5.5t11 24.5v0q18 57 14 103.5t-20 80.5t-43.5 59.5t-56 40t-58.5 21.5z" />
    <glyph glyph-name="jinlingyingcaiwangtubiao29" unicode="&#xe6bc;" 
d="M788 -154q-4 0 -7 1l-268 109l-268 -109q-10 -4 -18.5 2.5t-7.5 16.5l20 288l-186 222q-7 8 -3.5 18t13.5 13l281 69l152 245q6 9 17 9t16 -9l153 -245l280 -69q11 -3 14 -13t-4 -18l-185 -222l20 -288q1 -10 -8 -17q-5 -3 -11 -3z" />
    <glyph glyph-name="jinlingyingcaiwangtubiao49" unicode="&#xe754;" 
d="M975 394q-3 10 -14 13l-280 69l-153 245q-5 9 -16 9t-16 -9l-153 -245l-280 -69q-11 -3 -14 -13t3 -18l186 -222l-20 -288q-1 -10 7.5 -16.5t18.5 -2.5l268 109l268 -109q3 -1 7 -1q6 0 11 3q9 7 8 17l-20 288l186 222q6 8 3 18zM751 173q-5 -6 -4 -14l19 -265l-247 100
q-3 1 -7 1t-7 -1l-247 -100l19 265q1 8 -4 14l-171 204l258 64q7 2 11 8l141 226l141 -226q4 -6 11 -8l258 -64z" />
    <glyph glyph-name="qq" unicode="&#xe780;" 
d="M225 341l-2 5l-1 6l-1 3v5v5v4l1 6l2 6l2 6l3 6l3 8l5 7v5l1 4v6l2 7l2 8l2 4l2 3l2 4l3 2v5v6v7l1 9l2 10l2 12l4 13l2 8l3 7l3 8l4 7l3 9l4 8l5 8l6 9l2 5l3 4l6 9l7 9l7 9l8 9l8 9l9 9l11 10l7 5l8 7l8 6l9 5l9 5l10 4l10 5l11 3l10 4l11 3l11 3l12 2l12 2l12 2l11 1
l13 1h12h12h13l12 -2l13 -1l12 -1l12 -3l12 -3l12 -3l13 -3l11 -4l11 -5l12 -5l11 -6l11 -6l10 -6l9 -6l4 -4l4 -3l9 -7l7 -6l7 -7l6 -8l6 -8l7 -7l4 -9l5 -7l5 -9l4 -7l7 -16l3 -8l3 -8l3 -8l2 -8l2 -7l2 -8l4 -14l2 -12l2 -12l1 -9l2 -15l1 -2l2 -3l4 -7l3 -5l3 -6l3 -5
l3 -7l2 -7l2 -8l2 -8v-4l1 -4v-4l-1 -5v-5l-1 -5l-2 -9l-3 -5l-1 -5v-2v-2l3 -4l11 -16l8 -12l5 -8l5 -9l5 -9l6 -11l5 -11l6 -14l4 -8l3 -8l3 -8l3 -8l2 -7l2 -8l3 -14l2 -15l1 -13v-7v-6v-6l-1 -6l-1 -11l-2 -11l-3 -9l-1 -3l-2 -5l-2 -3l-2 -4l-2 -2l-3 -4l-2 -2l-3 -2
l-3 -2l-3 -1l-2 -1h-2h-1l-2 1l-4 2l-2 1l-2 2l-3 2l-2 2l-3 4l-5 6l-3 6l-3 4l-4 6l-4 9l-5 10l-1 1h-1l-2 -2l-1 -2l-2 -4l-4 -10l-5 -13l-7 -17l-5 -9l-6 -8l-6 -10l-7 -10l-3 -4l-5 -5l-9 -9l1 -1l1 -1l5 -3l20 -10l9 -5l8 -5l8 -6l8 -6l4 -3l2 -3l3 -4l2 -4l2 -4l1 -4
l1 -3v-4v-3v-3l-1 -3l-1 -2l-1 -3l-1 -2l-4 -5l-3 -4l-3 -3l-2 -2l-6 -4l-6 -4l-7 -3l-7 -4l-8 -3l-4 -1l-4 -1l-10 -2l-9 -2l-10 -2l-11 -2l-11 -1l-11 -1h-11h-11h-12l-13 1l-11 1l-13 2l-12 1l-13 2l-13 3l-13 2l-12 4l-12 4l-13 4l-6 2l-6 2l-4 2h-4h-4h-6l-12 1l-6 1
l-7 1l-5 -5l-7 -4l-9 -4l-11 -6l-6 -3l-6 -2l-15 -6l-7 -2l-8 -2l-12 -3h-7l-7 -1l-8 -1h-9h-9h-9h-19h-21l-20 2l-11 2l-10 1l-9 2l-10 2l-9 3l-9 2l-8 3l-8 3l-7 3l-6 4l-6 5l-2 2l-3 2l-2 3l-2 2l-2 3l-1 3l-2 5l-1 3l-1 4v3l1 3v3l1 4v2v5v3l2 4l1 5l3 4l2 2l1 3l4 4
l3 3l3 1l3 3l4 1l3 2l4 2l5 2l5 1l6 1l5 1l6 1h7l2 1v0l1 1v1l-1 1l-4 2l-9 8l-6 5l-7 6l-7 7l-7 9l-9 10l-3 5l-4 5l-4 7l-3 7l-5 7l-3 7l-3 8l-3 8l-3 8l-2 10l-1 1h-1v1h-1l-1 -1l-1 -1l-1 -1v-2l-1 -2l-1 -3l-5 -8l-2 -4l-3 -4l-4 -5l-4 -5l-4 -4l-5 -5l-5 -4l-5 -3
l-5 -4l-5 -2l-7 -2h-6h-1v0h-2l-1 3l-2 1l-2 6l-2 3l-1 5l-2 4v5l-2 10l-1 7v6v14l1 15l1 8l1 8l2 8l2 8l3 10l2 9l4 9l3 9l5 9l5 9l5 9l6 10l7 9l6 10l6 7l7 8l7 7l4 4l4 4l6 6l7 5l10 9l8 6z" />
    <glyph glyph-name="wechat" unicode="&#xe605;" 
d="M654 429q12 0 27 -2q-19 86 -100 142.5t-186 56.5q-117 0 -200 -70t-83 -171q0 -112 113 -191l-28 -85l99 49q72 -14 99 -14q12 0 27 1q-9 30 -9 60q0 93 70 158.5t171 65.5zM501 505q16 0 26 -9.5t10 -25.5t-10 -25.5t-26 -9.5t-29 10t-13 25t13 25t29 10zM303 435
q-17 0 -30 10t-13 25t13 25t30 10q16 0 25.5 -9.5t9.5 -25.5t-9.5 -25.5t-25.5 -9.5zM912 208q0 84 -72 144.5t-168 60.5q-101 0 -171 -60t-70 -145t70 -145.5t171 -60.5q28 0 84 15l78 -43l-21 71q99 74 99 163zM593 243q-10 0 -19 9t-9 19.5t9 19.5t19 9q16 0 26 -8.5
t10 -20t-10 -20t-26 -8.5zM749 243q-10 0 -19 9t-9 19.5t9 19.5t19 9q16 0 26 -8.5t10 -19.5t-10 -20t-26 -9z" />
    <glyph glyph-name="peisong" unicode="&#xe693;" 
d="M500 714q86 0 165 -33q76 -33 135 -91.5t91 -134.5q34 -79 34 -165.5t-34 -165.5q-32 -76 -91 -135t-135 -91q-79 -33 -165 -33t-165 33q-76 32 -135 91t-91 135q-34 79 -34 165.5t34 165.5q32 76 91 134.5t135 91.5q79 33 165 33zM500 775q-99 0 -189 -38.5t-155 -103.5
t-103.5 -155t-38.5 -189t38.5 -189t103.5 -155t155 -103.5t189 -38.5t189 38.5t155 103.5t103.5 155t38.5 189t-38.5 189t-103.5 155t-155 103.5t-189 38.5v0zM863 428h-121v-58h69v-31h-69v-58h78v-31h-78v-58h95v-31h-95v-44h-53q0 -31 -21.5 -52.5t-52.5 -21.5
t-52.5 21.5t-21.5 52.5h-180q0 -31 -21.5 -52.5t-52 -21.5t-52.5 21.5t-22 52.5h-52v195l115 115h83v77h383v-45h121v-31v0zM359 389h-64l-92 -92v-51h156v143zM359 389z" />
    <glyph glyph-name="shangcheng" unicode="&#xe614;" 
d="M873 580h-720l-65 -195q0 -45 31 -77t75 -32t75 32t31 77q0 -45 31.5 -77t75.5 -32t75 32t31 77q0 -45 31 -77t75 -32t75.5 32t31.5 77q0 -45 31 -77t75 -32t75 32t31 77zM225 614h576q16 0 27.5 10t11.5 23.5t-11.5 23t-27.5 9.5h-576q-16 0 -27.5 -9.5t-11.5 -23
t11.5 -23.5t27.5 -10zM726 270q-45 -43 -106.5 -43t-106.5 43q-45 -43 -106.5 -43t-106.5 43q-44 -43 -106 -43q-4 0 -8 1v-241q0 -28 20.5 -47t44.5 -19h524q29 0 47 19t18 47v241q-4 -1 -8 -1q-62 0 -106 43z" />
    <glyph glyph-name="zhifufangshi" unicode="&#xe63b;" 
d="M887 590h-750q-22 0 -37 -15t-15 -36v-478q0 -21 15 -36t37 -15h750q22 0 37 15t15 36v478q0 21 -15 36t-37 15zM905 61q0 -7 -5 -12t-13 -5h-750q-8 0 -13 5t-5 12v307h786v-307zM905 402h-786v137q0 7 5 12t13 5h750q8 0 13 -5t5 -12v-137zM512 249h-307v-34h307v34z
M512 163h-307v-34h307v34z" />
    <glyph glyph-name="feedback" unicode="&#xe61c;" 
d="M886 689h-748q-30 0 -51.5 -21.5t-21.5 -51.5v-475q0 -30 21.5 -51.5t51.5 -21.5h76q10 0 17 -7t7 -17v-131q0 -19 8 -32q11 -18 32 -18q18 0 36 17l168 161q11 11 31 19t36 8h337q30 0 51.5 21.5t21.5 51.5v475q0 30 -21.5 51.5t-51.5 21.5zM910 141q0 -10 -7 -17
t-17 -7h-337q-25 0 -54 -11.5t-47 -29.5l-161 -155v123q0 30 -21.5 51.5t-51.5 21.5h-76q-10 0 -17.5 7t-7.5 17v475q0 10 7.5 17t17.5 7h748q10 0 17 -7t7 -17v-475zM512 404q-17 0 -29 -12t-12 -28.5t12 -28.5t29 -12t29 12t12 28.5t-12 28.5t-29 12zM718 404
q-17 0 -29 -12t-12 -28.5t12 -28.5t29 -12t28.5 12t11.5 28.5t-11.5 28.5t-28.5 12zM306 404q-17 0 -28.5 -12t-11.5 -28.5t11.5 -28.5t28.5 -12t29 12t12 28.5t-12 28.5t-29 12z" />
    <glyph glyph-name="dingwei" unicode="&#xe608;" 
d="M514.5 807q-107.5 0 -199 -53.5t-145 -145t-53.5 -199.5q0 -62 20.5 -128.5t50 -122t71 -112.5t76 -96t72.5 -76.5t53.5 -51.5t25.5 -22q13 -10 28.5 -10t27.5 10q10 8 26 22t54 51.5t72.5 76.5t76 96t71 112.5t49.5 122t20 128.5q0 108 -53 199.5t-144.5 145t-199 53.5z
M514 310q-61 0 -104 43t-43 104t43 104t104 43t104.5 -43t43.5 -104t-43.5 -104t-104.5 -43z" />
    <glyph glyph-name="shizhong" unicode="&#xe64b;" 
d="M511 739q-89 0 -170 -35t-139.5 -93.5t-93 -139.5t-34.5 -170t34.5 -169.5t93 -139.5t139.5 -93.5t170 -34.5t170 34.5t139.5 93.5t93.5 139.5t35 169.5t-35 170t-93.5 139.5t-139.5 93.5t-170 35zM511 -62q-99 0 -183 48.5t-133 132.5t-49 183t49 183t133 133t183 49
t183 -49t132.5 -133t48.5 -183t-48.5 -183t-132.5 -132.5t-183 -48.5zM703 304v0v0h-182v219v0v0q0 15 -11 25.5t-26 10.5t-25.5 -10.5t-10.5 -25.5v0v0v-219v-2v-71h255v0v0q15 0 25.5 10.5t10.5 26t-10.5 26t-25.5 10.5z" />
    <glyph glyph-name="jianchaxinbanben" unicode="&#xe655;" 
d="M960 262q-2 -6 -7.5 -16t-26.5 -36.5t-46.5 -48.5t-70 -44.5t-95.5 -32t-125 -3t-157 34.5l32 70q0 1 0.5 3.5t2 9.5t0.5 12.5t-4.5 13t-11.5 10.5t-21 5.5t-34 -2.5l-267 -66q-1 0 -3.5 -0.5t-8 -3.5t-10.5 -6t-9.5 -8.5t-7 -12t-1 -15.5t7.5 -19l152 -239q2 -2 5.5 -4
t13 -6t18.5 -5t20 5t19 20l31 69v0q111 -37 232 -29q250 17 342 243q19 46 30 101v0zM67 353q3 6 8.5 16t27 36t47.5 47.5t71.5 42.5t96.5 29.5t125 0.5t156 -38l-33 -69q-2 -3 -3 -7.5t-1 -15t5 -18.5t21.5 -12t43.5 0l269 59q1 0 3 0.5t8 3t10.5 6t10 9t7.5 11.5t1 15
t-6 20l-147 242q-1 1 -4.5 3.5t-13 7t-18.5 5.5t-20 -4.5t-19 -19.5l-33 -69v0q-8 3 -19.5 6.5t-47 12t-70 12.5t-83 3.5t-92.5 -9.5t-91.5 -32.5t-86 -59.5t-71.5 -96t-52 -138v0zM67 353z" />
    <glyph glyph-name="wode" unicode="&#xe6dd;" 
d="M499.5 381q-102.5 0 -175 71t-72.5 171t72.5 171t175 71t175 -71t72.5 -171t-72.5 -171t-175 -71zM83 -97q-8 0 -13.5 5.5t-5.5 13.5q0 88 35.5 169t95.5 139.5t143 93.5t174 35t174 -35t143 -93.5t95.5 -139.5t35.5 -169q0 -8 -5.5 -13.5t-13.5 -5.5h-858z" />
    <glyph glyph-name="aixin" unicode="&#xe61f;" 
d="M523 684q43 34 45 35q77 52 165 38q122 -18 182 -132q30 -56 29 -128q-1 -58 -34 -119q-25 -46 -68 -99q-53 -64 -132 -135q-69 -63 -158 -130q-20 -14 -40 -8q-8 2 -15 8q-129 95 -224 191q-69 70 -110 131q-32 48 -47 93q-9 29 -11 70q-3 80 41.5 148.5t118.5 96.5
q111 42 214 -23q22 -14 42 -35l2 -2v0v0z" />
    <glyph glyph-name="fapiao" unicode="&#xe612;" 
d="M865 107l-51 50v51q0 41 -29.5 70.5t-71.5 29.5h-403q-41 0 -70.5 -29.5t-29.5 -70.5v-51l-51 -50q-41 0 -70.5 29.5t-29.5 71.5v302q0 42 29.5 71.5t70.5 29.5h706q41 0 70.5 -29.5t29.5 -71.5v-302q0 -42 -29.5 -71.5t-70.5 -29.5zM814 510q-21 0 -35.5 -15
t-14.5 -35.5t14.5 -35.5t35.5 -15t36 15t15 35.5t-15 35.5t-36 15zM688 661h-352q-32 0 -54 22t-22 53.5t22 53.5t54 22h352q32 0 54 -22t22 -53.5t-22 -53.5t-54 -22zM361 258h302q42 0 71.5 -29.5t29.5 -71.5v-100q0 -42 -29.5 -71.5t-71.5 -29.5h-302q-42 0 -71.5 29.5
t-29.5 71.5v100q0 42 29.5 71.5t71.5 29.5zM361 57h302v100h-302v-100z" />
    <glyph glyph-name="guanyuwomen" unicode="&#xe6c3;" 
d="M959 61v0q0 -11 -8.5 -19.5t-19.5 -8.5h-207q11 3 19 12.5t8 21.5v0v0q0 6 -0.5 14.5t-5.5 33t-14 46t-28 45t-45 36.5q-13 7 -23 10.5t-14.5 5t-11.5 2.5t-12 2v56q-21 16 -28 68q-9 -2 -13.5 7.5t-5.5 21.5q0 2 -0.5 10t-1 13.5t0 12t3 9.5t7.5 2q-6 46 -5 61
q4 34 33.5 61.5t74.5 29.5q52 -2 78 -28t30 -63q1 -14 -5 -61q5 1 7.5 -2t3 -9.5t0.5 -12t-1 -13.5t-1 -10q-1 -12 -5.5 -21.5t-13.5 -6.5q-3 -24 -10 -41t-13 -23l-5 -5v-55q14 -8 71 -32q28 -12 45.5 -15t41.5 -15q20 -10 35.5 -29t22.5 -36t11 -36.5t4.5 -27t0.5 -11.5v0
v0zM541 250q31 -13 50 -16t45 -16q23 -12 40 -32.5t24.5 -39t12 -40.5t5 -29.5t0.5 -12.5v0v0q0 -13 -9 -22t-22 -9h-591q-13 0 -22 9t-9 22v0v0q0 5 0.5 12.5t5 29.5t12 40.5t24.5 39t40 32.5q26 13 44.5 15.5t50.5 15.5q28 12 47.5 21t24.5 12l6 3v61l-6.5 6.5t-12.5 24
t-12 45.5q-10 -3 -14.5 7t-5.5 24q0 2 -1 11t-1.5 15t0 13t3.5 10.5t8 2.5q-6 50 -5 67q4 37 36.5 67t82.5 33q56 -3 85 -31.5t33 -68.5q2 -16 -5 -67q5 1 8 -2.5t3.5 -11t0 -13t-1.5 -14.5t-1 -11q-1 -14 -6 -24t-15 -7q-3 -26 -10.5 -45t-13.5 -25l-7 -6l1 -61h0.5t2 -1
t3.5 -2t5.5 -2.5t8 -3.5t10.5 -5t13 -6t16 -6.5t19 -8.5z" />
    <glyph glyph-name="shezhi" unicode="&#xe63a;" 
d="M870 355v58q0 21 13 37.5t33 22.5q-16 72 -56 134q-17 -10 -38 -7.5t-36 17.5l-41 41q-15 15 -17.5 36t7.5 38q-62 40 -134 56q-6 -20 -22.5 -33t-37.5 -13h-58q-21 0 -37.5 13t-22.5 33q-72 -16 -134 -56q10 -17 7.5 -38t-17.5 -36l-41 -41q-15 -15 -36 -17.5t-38 7.5
q-40 -62 -56 -134q20 -6 33 -22.5t13 -37.5v-58q0 -21 -13 -37.5t-33 -22.5q16 -72 56 -134q17 10 38 7.5t36 -17.5l41 -41q15 -15 17.5 -36t-7.5 -38q62 -40 134 -56q6 20 22.5 33t37.5 13h58q21 0 37.5 -13t22.5 -33q72 16 134 56q-10 17 -7.5 38t17.5 36l41 41
q15 15 36 17.5t38 -7.5q40 62 56 134q-20 6 -33 22.5t-13 37.5zM512 168q-89 0 -152.5 63.5t-63.5 152.5t63.5 152.5t152.5 63.5t152.5 -63.5t63.5 -152.5t-63.5 -152.5t-152.5 -63.5zM512 384zM367 384q0 60 42.5 102.5t102.5 42.5t102.5 -42.5t42.5 -102.5t-42.5 -102.5
t-102.5 -42.5t-102.5 42.5t-42.5 102.5z" />
    <glyph glyph-name="iconclosemessage" unicode="&#xe62c;" 
d="M537 238q0 23 16 39t39 16h285q23 0 39 -16t16 -39t-16 -39t-39 -16h-285q-23 0 -39 16t-16 39zM732 -54q121 0 206.5 85.5t85.5 206.5t-85.5 206.5t-206.5 85.5t-206 -85.5t-85 -206.5t85 -206.5t206 -85.5zM439 22h-59q-1 -2 -3.5 -4t-10.5 -8.5t-17 -13t-23 -14.5
t-28.5 -14t-33 -11.5t-37.5 -8t-41.5 -1.5t-44.5 6q42 22 61 46.5t16 44.5t-14 37t-21 26.5t-12 9.5q-81 57 -126 134.5t-45 170.5q0 108 61 200.5t166 146t229 53.5q141 0 255.5 -69t166.5 -181q-69 31 -146 31q-99 0 -183 -49t-132.5 -133t-48.5 -183q-1 -120 71 -216z
" />
    <glyph glyph-name="huodaofukuan" unicode="&#xe609;" horiz-adv-x="1244" 
d="M837 401q0 -14 -10 -23.5t-24 -9.5h-133v-45h133q14 0 24 -9.5t10 -23.5v-32q0 -14 -10 -23.5t-24 -9.5h-133v-85q0 -14 -10 -23.5t-24 -9.5h-34q-13 0 -23 9.5t-10 23.5v85h-134q-14 0 -23.5 9.5t-9.5 23.5v32q0 14 9.5 23.5t23.5 9.5h134v45h-134q-14 0 -23.5 9.5
t-9.5 23.5v32q0 14 9.5 23.5t23.5 9.5h88l-111 116q-9 10 -9 23t9 23l21 22q9 9 23.5 9.5t22.5 -9.5l140 -146l140 146q9 10 23 10t23 -10l22 -23q8 -9 8 -22t-8 -23l-111 -116h87q14 0 24 -9.5t10 -23.5v-32zM1198 501q26 17 33.5 34t7.5 45v196q0 47 -34.5 80.5
t-83.5 33.5h-1004q-48 0 -82.5 -33.5t-34.5 -80.5v-196q0 -29 8 -47.5t35 -32.5q14 -6 26.5 -14.5t28.5 -22.5t26 -34.5t10 -44.5q0 -51 -24 -76.5t-63 -37.5l-4 -2q-43 -27 -43 -80v-195q0 -48 34.5 -81.5t82.5 -33.5h1004q49 0 83.5 33.5t34.5 81.5v195q0 31 -9.5 47
t-33.5 33q-52 26 -71.5 51.5t-19.5 65t19 64t74 52.5v0z" />
    <glyph glyph-name="caipinfenlei" unicode="&#xe65f;" 
d="M127 127v0h783q11 0 17 3.5t16 13.5q9 9 9 28t-9 27q-15 16 -28 18h-8q-16 117 -97 212q-78 92 -192 126v1q2 11 2 16q0 49 -34 83t-82.5 34t-82 -34t-33.5 -83q0 -6 1 -17q-114 -34 -192 -126q-79 -93 -97 -222l10 2q-20 -1 -29 -10q-15 -14 -13.5 -31.5t13.5 -26.5
q19 -14 46 -14v0zM446 566q0 30 17 47t40.5 17.5t40.5 -17t17 -47.5v-4l-1 -1q-14 3 -29 4q-14 1 -27.5 1t-27.5 -1q-15 -1 -29 -4l-1 1v4v0zM259 314v0q28 46 70.5 79.5t95.5 48.5q2 1 4 1q3 1 5 1q13 0 21.5 -9t8.5 -21q0 -8 -3 -14t-8.5 -10.5t-12.5 -5.5q-27 -8 -52 -23
q-24 -13 -44 -33t-35 -43q-2 -5 -6 -9q-4 -5 -9.5 -7t-11.5 -2q-12 0 -20 9q-8 8 -8 21q-1 9 5 17v0zM910 93h-783q-29 0 -46 -17q-8 -9 -7 -25t9 -23q17 -13 44 -13h783q17 0 32 13q6 5 7.5 23t-5.5 26q-16 16 -34 16v0zM910 93z" />
    <glyph glyph-name="jushoucang" unicode="&#xe644;" 
d="M909 682q-10 12 -29 32q-159 163 -342 16q-10 -7 -29 -26q-5 5 -14.5 13t-14.5 13q-187 144 -342 -16q-20 -20 -26 -32q-66 -96 -67.5 -194t51 -188t154.5 -178q77 -67 137 -103q32 -19 45 -29q14 -9 19 -9l13 -7q2 -1 7.5 -3t8.5 -3q18 -5 44.5 -2t45.5 15q6 0 16 9
q23 12 44 29q61 36 138 103q103 90 156.5 180.5t51.5 188t-67 191.5zM736 163q-73 -62 -131 -99q-39 -23 -45 -26q-13 -6 -16 -9q-6 -3 -26 -10h-9h-16h-3v0v0q-4 0 -4 3q-1 0 -4.5 2t-4.5 2q-3 3 -16 9.5t-45 25.5q-78 50 -131 99q-288 257 -131 490q3 4 11 12t11 13
q124 133 275 13q10 -6 23 -19v0l28 -32v0l2 -1l1 -2h1v-1l1 -1l2 -2v0v0v0l1 1l1 2l1 1l1 1h1l1 1l1 1v1l1 1l1 1l1 1l1 1l1 1l1 1l1 1l2 1q25 26 41 39q152 120 276 -13q3 -5 11 -13t11 -13q58 -76 59.5 -159t-46.5 -162.5t-141 -161.5z" />
    <glyph glyph-name="faxian" unicode="&#xe743;" 
d="M535 525q28 -26 28 -65q0 -37 -26.5 -63.5t-63.5 -26.5q-33 0 -58 21.5t-31 52.5q-14 -29 -14 -61q0 -60 42.5 -102t102 -42t101.5 42t42 102q0 54 -35.5 94.5t-87.5 47.5zM987 433q-4 6 -11.5 16.5t-33 41.5t-53 59t-70.5 62t-87.5 58.5t-102 41.5t-115 17t-114.5 -16.5
t-102 -42.5t-86.5 -58t-71.5 -63t-52.5 -58t-33.5 -42t-11 -16q-16 -20 -16 -49t16 -49q4 -6 11.5 -16.5t33 -41.5t53 -59t70.5 -62t87 -58.5t101.5 -41.5t115 -17t115 16.5t102.5 42.5t86.5 57.5t71.5 63t52 58t33.5 42.5l11.5 16q16 20 16 49t-16 49zM505 149
q-93 0 -159 65.5t-66 159t66 159.5t159 66t159 -66t66 -159.5t-66 -159t-159 -65.5z" />
    <glyph glyph-name="gengduo1" unicode="&#xe635;" 
d="M133 256q-53 0 -93 38t-40 90t40 90t93 38q52 0 87.5 -37.5t35.5 -90.5t-35.5 -90.5t-87.5 -37.5zM128 480q-44 0 -70 -26t-26 -70t26 -70t70 -26t70 26t26 70t-26 70t-70 26zM517 256q-53 0 -93 38t-40 90t40 90t93 38q52 0 87.5 -37.5t35.5 -90.5t-35.5 -90.5
t-87.5 -37.5zM512 480q-44 0 -70 -26t-26 -70t26 -70t70 -26t70 26t26 70t-26 70t-70 26zM901 256q-53 0 -93 38t-40 90t40 90t93 38q52 0 87.5 -37.5t35.5 -90.5t-35.5 -90.5t-87.5 -37.5zM896 480q-44 0 -70 -26t-26 -70t26 -70t70 -26t70 26t26 70t-26 70t-70 26z" />
    <glyph glyph-name="pingjia" unicode="&#xe69e;" 
d="M588 878h-6v-189q0 -26 19 -45t46 -19h195l-254 253v0zM588 878zM640 598q-34 0 -58 24t-24 58v198h-417q-19 0 -32 -13t-13 -32v-840q0 -19 13 -32t32 -13h385l321 305v345h-207v0zM579 336h-339q-10 0 -17.5 7.5t-7.5 17.5t7.5 17t17.5 7h339q10 0 17.5 -7t7.5 -17
t-7.5 -17.5t-17.5 -7.5v0zM712 461h-472q-10 0 -17.5 7t-7.5 17.5t7.5 17.5t17.5 7h472q10 0 17.5 -7t7.5 -17.5t-7.5 -17.5t-17.5 -7v0zM712 461zM922 209l-19 20q-12 11 -29 11t-28 -11l-16 -19l74 -74l18 15q12 12 12 29.5t-12 28.5v0zM922 209zM636 21l-2 -2l-23 -81
q0 -8 6 -14t14 -6l83 23l-78 80v0zM638 -47l12 43h1l40 -41l-43 -12q-4 0 -7 3t-3 7v0zM638 -47zM815 193l-6 -8l-174 -165v-5v0v0l73 -74l1 1l1 -1h4l165 174l8 7zM815 193z" />
    <glyph glyph-name="jushoucanggift" unicode="&#xe684;" 
d="M893 672q-14 17 -27 31q-52 54 -109 72t-111.5 3t-109.5 -59q-14 -11 -27 -23q-13 12 -27 23q-55 44 -109 59t-111.5 -3t-109.5 -72q-13 -14 -25 -30q-63 -91 -65 -186t48.5 -182t149.5 -173q60 -53 133 -100q22 -15 43 -27q11 -6 17 -9q7 -5 15 -7q5 -3 12 -5
q19 -5 44 -1.5t42 13.5q4 2 16 9q21 12 44 27q72 47 133 100q98 86 148.5 173t49 181.5t-63.5 185.5z" />
    <glyph glyph-name="zhuye" unicode="&#xe6c5;" 
d="M919 443l-330 343q-31 33 -77 33t-77 -33l-330 -343q-41 -42 -24 -79q15 -34 56 -34h49v-265q0 -46 29.5 -81t74.5 -35h55h85v62v218v11.5v11t1 8t2.5 7l4.5 4.5t7.5 3.5t10.5 0.5h56h55q7 0 11.5 -0.5t7.5 -3.5l4.5 -4.5t2.5 -7t1 -8v-11v-11.5v-218v-62h85h55
q45 0 74.5 35t29.5 81v265h49q41 0 56 34q4 8 4.5 18t-6 27t-22.5 34z" />
    <glyph glyph-name="huiyuan" unicode="&#xe654;" 
d="M64 553l3 8q5 16 18.5 26.5t31.5 11.5q16 1 30.5 -7t22.5 -23q16 -33 -8 -62q-3 -3 -5 -6q6 -4 52.5 -32t70.5 -43q28 -18 47 -29q14 -8 21 5q66 121 142 259q-34 17 -35 50q-2 25 16 42t42.5 16t39.5 -20q18 -22 12 -45.5t-34 -42.5q22 -40 37 -67q17 -31 51.5 -93.5
t51.5 -93.5q6 -11 11 -12.5t16 4.5q30 19 87 54t72 44l3 1.5t4 2.5q-17 18 -19 39q-1 21 12 38t34 20q22 4 40 -7t24 -32q0 -1 2 -6v-20q-14 -45 -59 -45q-3 -9 -3 -10q-16 -54 -47 -160t-46 -159q-3 -11 -8 -14.5t-15 -3.5h-536q-11 0 -15.5 3.5t-8.5 14.5q-12 43 -37 129
t-38 130q-4 13 -11 37.5t-10 32.5q-36 0 -52 30q-1 0 -7 16v19v0v0zM64 553zM510 85h251q16 0 28 -10.5t14 -26.5t-7.5 -29t-25.5 -16q-3 -1 -9 -1h-501q-14 0 -25.5 7.5t-15.5 20.5t0 26.5t15 20.5q14 8 28 8h248v0v0v0zM510 85z" />
    <glyph glyph-name="unie737" unicode="&#xe616;" 
d="M609 224q-37 0 -69 4q-13 1 -21 11.5t-6.5 23.5t11.5 21.5t23 6.5q44 -3 89 -2t84.5 13t49.5 32q6 12 18.5 16.5t24.5 -1t16.5 -18t-1.5 -24.5q-40 -83 -219 -83v0zM896 256q-13 0 -22.5 9.5t-9.5 22.5v110l-43 16q-21 7 -21 30q0 119 -84.5 203.5t-203.5 84.5
t-203.5 -84.5t-84.5 -203.5q0 -8 -3.5 -15t-9.5 -11l-19 -14v-116q0 -13 -9.5 -22.5t-22.5 -9.5t-22.5 9.5t-9.5 22.5v133q0 5 1.5 10t4.5 9t7 7l19 13q7 140 109 238t243 98q92 0 170.5 -44t126.5 -119.5t54 -166.5l44 -15q21 -8 21 -30v-133q0 -13 -9.5 -22.5t-22.5 -9.5
v0zM640 112v10q48 37 64 73q-19 -3 -88 -3h-18q-11 0 -18 -0.5t-15 0t-14 0.5t-11 1q-26 3 -43 25t-14 49q3 26 24 42.5t47 13.5q55 -5 106 -0.5t75 14.5q1 21 1 84q0 50 -15 91t-43 69.5t-68.5 44t-89.5 16.5h-20q-40 -1 -73.5 -11t-59.5 -29t-44 -45.5t-27 -61t-9 -75.5
q0 -35 0.5 -57.5t6 -61.5t15 -67t29 -59.5t46.5 -52.5v-10q-100 -15 -163 -53t-63 -89q0 -22 21 -31q6 -3 12 -3h628q8 0 17.5 5t15.5 13t6 16q0 51 -60 89t-158 53v0z" />
    <glyph glyph-name="baidu0" unicode="&#xe6a6;" 
d="M274 365q23 4 38 18t21.5 29t8.5 35t1 29.5t-2 20.5q-3 28 -31 57t-63 26q-19 -2 -33.5 -12.5t-22 -24.5t-12.5 -28t-6 -24l-1 -9q-5 -24 3.5 -53.5t34.5 -50.5t64 -13zM360 200q-8 -22 -3 -38q4 -15 14 -22t19 -7l8 1h46v91h-46q-14 -4 -25.5 -12t-12.5 -13zM424 523
q34 0 57.5 33t23.5 79.5t-23.5 79.5t-57.5 33t-57.5 -33t-23.5 -79.5t23.5 -79.5t57.5 -33zM617 516q41 -6 70 27.5t35 74.5q6 35 -17 69.5t-56 41.5q-30 7 -63 -29t-37 -71q-5 -45 10.5 -76.5t57.5 -36.5zM763 238q-10 8 -27 21.5t-56 52t-63 71.5q-26 40 -59 56.5
t-62 11.5t-53.5 -20.5t-37.5 -37.5q-16 -25 -38 -48t-39.5 -37.5t-19.5 -16.5q-1 -1 -14.5 -11t-26.5 -22t-28 -33t-19.5 -44t0.5 -54q18 -81 90 -103l20 -4q54 3 123 18q35 7 64 5.5t47 -5t18 -4.5q3 -1 9 -2.5t23.5 -5t34.5 -5t39 0t40 7t34.5 19.5t25.5 35q12 29 14 55
t-4 43.5t-13.5 31t-14.5 19.5zM489 88h-114q-42 1 -60 42q-15 34 -8 72q8 27 25.5 44.5t30.5 20.5l12 3h69v69h45v-251v0zM671 88h-114q-20 1 -31 12t-13 21l-1 10v139h45v-113q2 -6 7.5 -11.5t10.5 -8.5l5 -3h46v136h45v-182zM854 436q0 11 -4.5 24.5t-14 29.5t-28.5 26.5
t-44 10.5q-81 0 -81 -110q0 -16 1 -27.5t6 -27t14.5 -25t27.5 -16t44 -6.5q14 1 25.5 4t19.5 10t14.5 13.5t9.5 17t5.5 17.5t3 18.5t1 16.5t0.5 14.5v9.5z" />
    <glyph glyph-name="bankexin" unicode="&#xe631;" 
d="M710.5 705q42.5 0 82.5 -16t71.5 -47.5t47.5 -71.5t16 -82.5t-16 -81.5q-16 -41 -47 -72l-24 -24l-300 -255v571l16 15q31 32 72 48q39 16 81.5 16zM711 736q-103 0 -176 -73l-25 -25v-649l351 298l25 25q73 73 73 175.5t-72.5 175.5t-175.5 73v0zM511 638l-24 25
q-73 73 -176 73t-175.5 -73t-72.5 -175.5t73 -175.5l24 -25l351 -298v649z" />
    <glyph glyph-name="yijianfankui" unicode="&#xe64e;" horiz-adv-x="1025" 
d="M986 439q-99 -66 -176 -110q-11 -5 -11 -13.5t11 -30.5q15 -44 51 -117q6 -11 5 -17.5t-12 -11.5q-3 -2 -5.5 -2.5t-7.5 3t-9 7t-11 11t-13 14.5l-15 17.5t-17 20t-18.5 22.5t-20.5 24q-11 11 -18.5 15.5t-16 3t-13.5 -4.5t-18 -13t-22 -16q-7 -4 -25.5 -17.5t-28 -19
t-25 -14t-28 -12t-25.5 -3.5q-15 0 -30 4.5t-33.5 15t-31 18.5t-37 25t-36.5 25q-1 0 -8.5 0.5t-10.5 -0.5t-10 -3.5t-14.5 -9t-15.5 -16.5q-51 -51 -81 -95q-11 -11 -13.5 -12t-8.5 4q-6 0 -9 9.5t2 20.5q18 27 51 109q2 5 5.5 13t5 13t3 10.5t0 9.5t-5.5 6
q-72 44 -213 124q-4 3 -8.5 2.5t-9 -7t-4.5 -17.5v-359q0 -38 28.5 -66.5t67.5 -28.5h827q39 0 67 28.5t28 66.5v367q8 7 -1 14q-10 8 -35 -7v0zM898 461v190q0 61 -43 104t-104 43h-468q-61 0 -104 -43t-43 -104v-190q359 -213 381 -213q13 0 108.5 53.5t183.5 106t89 53.5
v0zM349 659h344v-66h-344v66v0zM349 527h344v-66h-344v66v0z" />
    <glyph glyph-name="help" unicode="&#xe690;" 
d="M914 340h-90q-44 0 -44 44.5t44 44.5h90q44 0 44 -44.5t-44 -44.5zM788 587q-16 -16 -39.5 -16t-39.5 16t-16 39t16 39l39 38q17 16 40 16t39.5 -16t16.5 -38.5t-17 -38.5zM623 192q-12 -17 -23 -28q0 -1 0.5 -1.5t0.5 -1.5v-89q0 -19 -13 -32t-32 -13h-89q-19 0 -32 13
t-13 32v89q0 1 0.5 1.5t0.5 1.5q-11 11 -22 28q-52 29 -82.5 80.5t-30.5 111.5q0 93 65.5 158.5t158 65.5t158 -65.5t65.5 -158.5q0 -60 -30.5 -111.5t-81.5 -80.5zM511.5 652q-44.5 0 -44.5 45v89q0 45 44.5 45t44.5 -45v-89q0 -45 -44.5 -45zM235 587l-39 39
q-17 16 -17 38.5t16.5 38.5t39.5 16t40 -16l39 -38q17 -16 17 -39t-16.5 -39t-39.5 -16t-40 16zM244 384.5q0 -44.5 -45 -44.5h-89q-45 0 -45 44.5t45 44.5h89q45 0 45 -44.5zM489 -18h45q9 0 15.5 -6.5t6.5 -15.5t-6.5 -15.5t-15.5 -6.5h-45q-9 0 -15.5 6.5t-6.5 15.5
t6.5 15.5t15.5 6.5z" />
    <glyph glyph-name="zhifubaozhifu" unicode="&#xe728;" 
d="M636 292q27 49 48 103.5t29 84.5l7 30h-11v0h-95h-101v78h246v33h-246v118h-111v-118h-224v-33h224v-78h-190v-34h385q0 -5 -6 -11q0 -39 -50 -140q-41 17 -79.5 29t-68 19t-58 11t-48.5 5t-39.5 -1t-31.5 -4t-25 -6.5t-18.5 -7t-13.5 -7t-9 -4.5q-38 -27 -59.5 -58.5
t-24.5 -60t3 -56t20 -49.5t29.5 -39t29 -25.5t19.5 -7.5q250 -56 419 145q5 -5 17 -5q27 -15 116 -58.5t165 -79.5l76 -36v168q-7 0 -18.5 1.5t-27.5 6t-31 8.5t-38.5 11t-39.5 12t-43.5 14t-42 14t-43.5 14.5t-40 13.5v0zM491 242q-39 -51 -86 -81.5t-84 -39.5t-75.5 -7.5
t-57 6t-32.5 10.5q-25 6 -41 29.5t-19 51.5t10.5 56t43.5 42q50 15 100 17t96.5 -9.5t81 -24.5t74.5 -34l-11 -16v0zM491 242z" />
    <glyph glyph-name="shangcheng1" unicode="&#xe65e;" 
d="M891 678h-758l-69 -205q0 -48 33 -81.5t79 -33.5t79 33.5t33 81.5q0 -48 33 -81.5t79 -33.5t79 33.5t33 81.5q0 -48 33 -81.5t79 -33.5t79 33.5t33 81.5q0 -48 33 -81.5t79 -33.5t79 33.5t33 81.5l-69 205v0zM209 714h606q17 0 29.5 10.5t12.5 24.5t-12.5 24.5
t-29.5 10.5h-606q-17 0 -29.5 -10.5t-12.5 -24.5t12.5 -24.5t29.5 -10.5v0zM736 352q-47 -45 -112 -45t-112 45q-47 -45 -112 -45t-112 45q-47 -45 -112 -45h-9v-253q0 -30 22 -50t47 -20h552q30 0 49.5 20.5t19.5 49.5v253h-9q-65 0 -112 45v0z" />
    <glyph glyph-name="yushoulichaxun" unicode="&#xe692;" 
d="M1001 -32l-84 85q54 68 54 155q0 103 -72.5 176t-176 73t-176.5 -73t-73 -176.5t73 -176t176 -72.5q84 0 151 51l85 -85q9 -9 22 -9q12 0 21 9t9 21.5t-9 21.5zM722.5 16q-79.5 0 -136 56t-56.5 135.5t56.5 135.5t136 56t135.5 -56t56 -135.5t-56 -135.5t-135.5 -56z
M614.5 303q-11.5 6 -17.5 -6q-22 -40 -26 -86q-1 -5 2.5 -9t9.5 -5h1q12 0 13 12q4 40 23 76q6 12 -5.5 18zM356 730h197q15 0 26.5 13t11.5 31t-11.5 31t-27.5 13h-196q-17 0 -28.5 -13t-11.5 -31t11.5 -31t28.5 -13zM454 208q0 111 78.5 189.5t189.5 78.5q58 0 110 -24
v218q0 46 -25 73.5t-74 27.5h-88q1 -8 1 -15q0 -28 -17.5 -50.5t-40.5 -22.5h-273q-24 0 -42 22.5t-18 50.5q0 7 2 15h-90q-51 0 -70.5 -26t-19.5 -75v-587q0 -50 22.5 -74.5t72.5 -24.5h404q-56 36 -89 95.5t-33 128.5zM218 548h336q11 0 19 -8.5t8 -20.5q0 -11 -9 -20.5
t-20 -9.5h-337q-10 0 -16.5 9.5t-6.5 20.5t7.5 20t18.5 9zM342 160h-127q-10 0 -16.5 9t-6.5 21q0 11 7.5 19.5t18.5 8.5h126q11 0 19 -8.5t9 -19.5q0 -11 -9.5 -20.5t-20.5 -9.5zM213 322q-10 0 -19 10.5t-9 21.5t7.5 18.5t18.5 7.5h239q11 0 18.5 -7.5t8.5 -18.5
q0 -11 -7 -21.5t-17 -10.5h-240z" />
  </font>
</defs>
</svg>
